<svg width="125" height="92" viewBox="0 0 125 92" fill="none" xmlns="http://www.w3.org/2000/svg">
<path d="M78.8615 18.2024L65.1759 6.44408L72.5355 0L78.8819 5.56717L78.8615 18.2024Z" fill="#3DB76C"/>
<path d="M45.7648 5.8148L52.408 0.0157471L59.7901 6.43173L45.9323 18.5501C45.6769 17.2631 45.8389 15.744 45.8397 14.4215L45.8301 5.94195L45.7648 5.8148Z" fill="#3DB76C"/>
<path d="M45.9406 67.2574L46.0277 67.3713C46.1257 67.315 46.1541 67.2783 46.202 67.1742L50.0148 58.4166L68.7382 16.8302L73.8092 19.9894L71.0347 26.429L54.9055 61.8823L51.9339 68.4342L50.8346 70.9402C50.7451 71.1512 50.5642 71.7 50.4043 71.84L46.0007 68.1302L46.0002 72.8292L45.9437 72.8186L45.9446 68.2688L45.9406 67.2574Z" fill="#3DB76C"/>
<path d="M36.4004 13.8903L42.4276 8.64487C43.4956 7.70655 44.5892 6.60582 45.7648 5.81482L45.8301 5.94197L45.8397 14.4215C45.8389 15.744 45.6769 17.2631 45.9323 18.5501L45.9405 67.2575L45.9446 68.2688L45.9437 72.8186L46.0002 72.8292L46.0705 72.8995L59.893 84.9154L52.3201 91.4087L45.816 85.7972L36.3426 77.7058C36.4963 76.5355 36.3952 75.253 36.3929 74.0661C36.3873 70.912 36.2354 67.6824 36.427 64.5375L36.3767 64.3023L36.3155 53.1559C36.428 52.0901 36.3461 50.9541 36.3422 49.8807L36.3665 43.5259L36.3777 38.2572C36.4528 37.9977 36.4007 37.6276 36.3982 37.3495L36.3816 35.3213L36.3559 27.2799L36.4004 13.8903Z" fill="#188C71"/>
<path d="M88.5357 13.8755L124.762 45.8597L88.6565 77.5278L88.6249 64.4194L88.651 64.3549L88.5688 53.0554C88.467 52.0946 88.5521 51.0394 88.5546 50.0691L88.5561 43.8487L88.5985 38.2086L88.5737 27.0664C88.39 25.5836 88.5282 23.9092 88.5243 22.4063L88.5357 13.8755Z" fill="#2E4BDC"/>
<path d="M88.0548 27L109.486 45.7603L92.319 60.6391L89.4387 63.1631C89.0704 63.4929 88.5726 64.0823 88.1321 64.2885L88.0499 52.9891C87.9481 52.0282 88.0332 50.973 88.0357 50.0027L88.0372 43.7823L88.0796 38.1423L88.0548 27Z" fill="white"/>
<path d="M88.5984 38.2086L96.8646 45.6926L88.5687 53.0554C88.467 52.0946 88.552 51.0394 88.5546 50.0691L88.5561 43.8487L88.5984 38.2086Z" fill="#2E4BDC"/>
<path d="M36.4004 13.8904L36.356 27.28L36.3816 35.3213L36.3982 37.3496C36.4007 37.6276 36.4528 37.9977 36.3777 38.2573L36.3665 43.5259L36.3422 49.8808C36.3461 50.9542 36.428 52.0902 36.3155 53.1559L36.3767 64.3024L36.427 64.5376C36.2354 67.6824 36.3873 70.912 36.393 74.0661C36.3952 75.2531 36.4964 76.5355 36.3427 77.7059L0 45.8992L36.4004 13.8904Z" fill="#2E4BDC"/>
<path d="M36.3559 27.2799L36.3816 35.3212L36.3981 37.3495C36.4007 37.6276 36.4528 37.9977 36.3777 38.2572L36.3665 43.5258L36.3422 49.8807C36.3461 50.9541 36.428 52.0901 36.3155 53.1559L36.3766 64.3023C36.0442 64.2493 34.1006 62.3433 33.6788 61.9855L14.8496 45.8848L36.3559 27.2799Z" fill="white"/>
<path d="M36.3155 53.1559L27.7083 45.6946L36.3777 38.2572L36.3665 43.5258L36.3422 49.8807C36.3461 50.9541 36.428 52.0901 36.3155 53.1559Z" fill="#2E4BDC"/>
<path d="M78.882 5.56726L79.1708 5.82037L88.5357 13.8756L88.5243 22.4064C88.5282 23.9093 88.39 25.5837 88.5737 27.0664L88.5985 38.2087L88.5561 43.8488L88.5546 50.0692C88.5521 51.0395 88.467 52.0946 88.5688 53.0555L88.651 64.355L88.6249 64.4195L88.6565 77.5279L79.1435 85.7104C79.0456 85.8646 78.7793 86.0258 78.6319 86.1482L77.211 87.3324C75.6226 88.6742 74.1179 90.1248 72.4721 91.3968L65.0413 84.9245L78.949 72.8329C78.8329 72.491 78.8812 72.0534 78.8778 71.693L78.8676 69.3877L78.8688 61.0671L78.8394 23.4024L78.7984 23.4736C78.1948 24.5502 77.7686 25.7993 77.2647 26.9309L72.6324 37.8317L64.1754 56.585L58.0022 70.1055L56.3987 73.5487C56.187 74.0025 56.0136 74.6984 55.621 75.0008C55.1783 75.1116 54.7181 75.0652 54.2653 75.0505C52.8824 74.1275 51.7215 72.8602 50.4043 71.84C50.5643 71.7 50.7451 71.1512 50.8346 70.9402L51.9339 68.4342L54.9055 61.8823L71.0347 26.429L73.8093 19.9895L78.8711 23.209C78.7078 21.6082 78.8597 19.8218 78.8615 18.2025L78.882 5.56726Z" fill="#188C71"/>
</svg>
