<svg width="147" height="106" viewBox="0 0 147 106" fill="none" xmlns="http://www.w3.org/2000/svg">
<path d="M92.6537 21.1079L76.7481 7.47272L85.3015 0L92.6774 6.45583L92.6537 21.1079Z" fill="#3DB76C"/>
<path d="M54.1883 6.74305L61.9091 0.0183105L70.4887 7.45846L54.383 21.5112C54.0861 20.0187 54.2745 18.2572 54.2754 16.7236L54.2643 6.8905L54.1883 6.74305Z" fill="#3DB76C"/>
<path d="M54.3926 77.9935L54.4939 78.1255C54.6078 78.0602 54.6407 78.0177 54.6964 77.897L59.1277 67.7414L80.8882 19.5167L86.7819 23.1802L83.5572 30.6478L64.8117 71.7603L61.3581 79.3581L60.0805 82.2641C59.9765 82.5088 59.7663 83.1452 59.5804 83.3075L54.4625 79.0055L54.462 84.4547L54.3962 84.4424L54.3973 79.1663L54.3926 77.9935Z" fill="#3DB76C"/>
<path d="M43.3049 16.1076L50.3098 10.0248C51.551 8.93675 52.8221 7.6603 54.1883 6.74304L54.2642 6.89049L54.2754 16.7236C54.2745 18.2572 54.0861 20.0187 54.383 21.5112L54.3926 77.9936L54.3973 79.1664L54.3962 84.4425L54.462 84.4548L54.5436 84.5362L70.6082 98.4701L61.807 106L54.2478 99.4927L43.2378 90.1098C43.4164 88.7526 43.2988 87.2655 43.2962 85.889C43.2897 82.2314 43.1131 78.4863 43.3358 74.8394L43.2773 74.5667L43.2062 61.641C43.337 60.4051 43.2418 59.0878 43.2373 57.8431L43.2656 50.4738L43.2786 44.3641C43.3658 44.0632 43.3053 43.634 43.3023 43.3116L43.2831 40.9595L43.2532 31.6346L43.3049 16.1076Z" fill="#188C71"/>
<path d="M103.97 44.3077L113.577 52.9864L103.936 61.5245C103.817 60.4103 103.916 59.1867 103.919 58.0615L103.921 50.8481L103.97 44.3077Z" fill="#2E4BDC"/>
<path d="M43.2062 61.6409L33.2028 52.9886L43.2786 44.364L43.2655 50.4737L43.2373 57.8429C43.2418 59.0877 43.337 60.405 43.2062 61.6409Z" fill="#2E4BDC"/>
<path d="M92.6774 6.45593L93.0132 6.74944L103.897 16.0905L103.884 25.983C103.888 27.7259 103.728 29.6675 103.941 31.387L103.97 44.3078L103.921 50.8482L103.919 58.0615C103.916 59.1867 103.817 60.4103 103.936 61.5246L104.031 74.6277L104.001 74.7026L104.038 89.9034L92.9814 99.3921C92.8677 99.5709 92.5581 99.7578 92.3868 99.8997L90.7354 101.273C88.8893 102.829 87.1405 104.511 85.2278 105.986L76.5917 98.4807L92.7553 84.4589C92.6204 84.0625 92.6766 83.555 92.6726 83.1371L92.6608 80.4638L92.6622 70.815L92.628 27.138L92.5803 27.2206C91.8788 28.469 91.3835 29.9175 90.7979 31.2298L85.4141 43.8707L75.5853 65.6174L68.4108 81.2961L66.5472 85.289C66.3011 85.8152 66.0996 86.6223 65.6433 86.973C65.1287 87.1014 64.5939 87.0476 64.0677 87.0305C62.4604 85.9602 61.1112 84.4906 59.5804 83.3076C59.7663 83.1452 59.9765 82.5088 60.0805 82.2642L61.3582 79.3582L64.8117 71.7604L83.5572 30.6478L86.7819 23.1803L92.6648 26.9138C92.475 25.0574 92.6516 22.9859 92.6537 21.108L92.6774 6.45593Z" fill="#188C71"/>
<path d="M146.857 53.3428L104.437 16.2347V31.8897L128.843 53.3428L104.437 74.2161V89.871L146.857 53.3428Z" fill="#2E4BDC"/>
<path d="M2.28882e-05 53.5282L42.4207 90.6362V74.9813L18.0143 53.5282L42.4207 32.6549V16.9999L2.28882e-05 53.5282Z" fill="#2E4BDC"/>
</svg>
