<svg width="112" height="105" viewBox="0 0 112 105" fill="none" xmlns="http://www.w3.org/2000/svg">
<path d="M100.117 38.3353C101.344 37.4966 102.683 36.7839 103.948 35.9973L108.575 33.1031C109.449 32.5642 110.345 31.8781 111.341 31.6005L111.323 41.0419C111.323 42.3066 111.442 43.7097 111.299 44.9581L105.904 41.7772L101.883 39.3255C101.367 39.0231 100.717 38.5316 100.118 38.4861L100.117 38.3353Z" fill="#0BEA8D"/>
<path d="M38.0425 57.3548C38.2583 57.0993 38.1143 50.6505 38.1104 49.8016L50.254 42.3169L50.2982 76.3685L38.0142 68.8748L38.0425 57.3548Z" fill="#1B2F8E"/>
<path d="M100.118 38.4861C100.717 38.5317 101.367 39.0231 101.883 39.3255L105.904 41.7772L111.299 44.9581C111.268 45.043 111.254 45.1369 111.205 45.2126C110.923 45.6432 105.739 48.6479 104.875 49.1928L73.2048 69.0601C73.0509 68.4298 73.0845 67.7434 73.0831 67.0977L73.0797 64.3413L73.0984 55.3697L100.118 38.4861Z" fill="#188C71"/>
<path d="M73.2048 69.06L61.1282 76.4728L61.1192 28.4308L73.103 35.6947L73.0984 55.3697L73.0797 64.3412L73.0831 67.0976C73.0845 67.7434 73.0509 68.4298 73.2048 69.06Z" fill="#3DB76C"/>
<path d="M0.0625 59.0581C0.158149 58.883 0.231417 58.8197 0.402272 58.7134L14.2343 50.2998L50.3028 28.0065L50.254 42.3169L38.1104 49.8016C38.1143 50.6505 38.2583 57.0993 38.0425 57.3548L38.0241 49.9221L24.5611 58.2943L13.6992 64.9903C13.2367 65.2841 12.127 65.7831 11.8209 66.2007L11.7615 66.1838C11.2463 65.7626 10.6021 65.4289 10.0361 65.0746L5.8689 62.5499L1.8579 60.0653C1.28848 59.7227 0.689368 59.2784 0.0625 59.0581Z" fill="#2E4BDC"/>
<path d="M100.117 38.3353C99.6141 38.1502 99.0633 37.7571 98.5997 37.4811L95.4707 35.5685L86.2624 29.9027L69.9206 19.8461L61.1447 14.4141L61.1403 0L110.954 31.0345C111.265 31.2398 111.268 31.2414 111.341 31.6005C110.345 31.8781 109.449 32.5642 108.575 33.1031L103.948 35.9973C102.684 36.7839 101.344 37.4967 100.117 38.3353Z" fill="#3DB76C"/>
<path d="M0.0533805 31.321C0.253781 31.0573 0.562516 30.9264 0.844689 30.7633L2.43566 29.83L8.14029 26.2817L38.9884 7.10087L50.247 0.104858L50.2483 14.462L11.6334 38.354L0.0523376 45.5071L0.0533805 31.321Z" fill="#188C71"/>
<path d="M0.0624901 59.0581C0.689358 59.2783 1.28847 59.7227 1.85789 60.0653L5.86889 62.5499L10.0361 65.0746C10.6021 65.4288 11.2463 65.7626 11.7615 66.1838L11.8209 66.2007L50.2731 89.8062L50.3047 104.366L0.0851726 73.5268C0.00280384 72.8064 0.0510006 72.045 0.0515975 71.3199C0.0521943 70.4609 0.0113104 69.5791 0.0666705 68.7227C-0.0747889 67.8462 0.0530886 66.7338 0.0514472 65.8355L0.0624901 59.0581Z" fill="#1B2F8E"/>
<path d="M0.0624901 59.0581C0.689358 59.2783 1.28847 59.7227 1.85789 60.0653L5.86889 62.5499L10.0361 65.0746C10.6021 65.4288 11.2463 65.7626 11.7615 66.1838L0.147245 73.3712L0.1371 70.452C0.134264 69.8888 0.171422 69.2768 0.0666705 68.7227C-0.0747889 67.8462 0.0530886 66.7338 0.0514472 65.8355L0.0624901 59.0581Z" fill="#0F216D"/>
<path d="M111.229 58.9175L111.374 58.9732L111.38 73.4322L61.3737 104.209L61.1916 104.263C61.0628 103.952 61.1276 103.453 61.1282 103.105L61.13 100.393L61.1363 89.8516L111.229 58.9175Z" fill="#2E4BDC"/>
</svg>
